<mxfile host="app.diagrams.net" modified="2024-04-01T09:39:22.221Z" agent="Mozilla/5.0 (Windows NT 10.0; Win64; x64) AppleWebKit/537.36 (KHTML, like Gecko) Chrome/123.0.0.0 Safari/537.36" etag="p627KBge39GDq9TP-VNX" version="24.0.0" type="device">
  <diagram name="Page-1" id="eimyw0e9gCtsIk7hx3Ec">
    <mxGraphModel dx="1290" dy="617" grid="1" gridSize="10" guides="1" tooltips="1" connect="1" arrows="1" fold="1" page="1" pageScale="1" pageWidth="827" pageHeight="1169" math="0" shadow="0">
      <root>
        <mxCell id="0" />
        <mxCell id="1" parent="0" />
        <mxCell id="bJvkTu5emq88tktvNx5C-3" value="" style="edgeStyle=orthogonalEdgeStyle;rounded=0;orthogonalLoop=1;jettySize=auto;html=1;" edge="1" parent="1" source="bJvkTu5emq88tktvNx5C-1" target="bJvkTu5emq88tktvNx5C-2">
          <mxGeometry relative="1" as="geometry" />
        </mxCell>
        <mxCell id="bJvkTu5emq88tktvNx5C-1" value="&lt;font color=&quot;#ffffff&quot;&gt;Usr logs in&lt;/font&gt;" style="ellipse;whiteSpace=wrap;html=1;fillColor=#663300;" vertex="1" parent="1">
          <mxGeometry x="30" y="30" width="120" height="80" as="geometry" />
        </mxCell>
        <mxCell id="bJvkTu5emq88tktvNx5C-5" value="" style="edgeStyle=orthogonalEdgeStyle;rounded=0;orthogonalLoop=1;jettySize=auto;html=1;" edge="1" parent="1" source="bJvkTu5emq88tktvNx5C-2" target="bJvkTu5emq88tktvNx5C-4">
          <mxGeometry relative="1" as="geometry" />
        </mxCell>
        <mxCell id="bJvkTu5emq88tktvNx5C-7" value="" style="edgeStyle=orthogonalEdgeStyle;rounded=0;orthogonalLoop=1;jettySize=auto;html=1;" edge="1" parent="1" source="bJvkTu5emq88tktvNx5C-2" target="bJvkTu5emq88tktvNx5C-6">
          <mxGeometry relative="1" as="geometry" />
        </mxCell>
        <mxCell id="bJvkTu5emq88tktvNx5C-2" value="&lt;font color=&quot;#ffffff&quot;&gt;Correct credential?&lt;/font&gt;" style="rhombus;whiteSpace=wrap;html=1;fillColor=#0066CC;" vertex="1" parent="1">
          <mxGeometry x="190" y="30" width="110" height="80" as="geometry" />
        </mxCell>
        <mxCell id="bJvkTu5emq88tktvNx5C-4" value="" style="whiteSpace=wrap;html=1;aspect=fixed;fillColor=#000000;" vertex="1" parent="1">
          <mxGeometry x="390" y="30" width="390" height="390" as="geometry" />
        </mxCell>
        <mxCell id="bJvkTu5emq88tktvNx5C-6" value="&lt;font color=&quot;#ffffff&quot;&gt;display UI and&lt;/font&gt;&lt;div&gt;&lt;font color=&quot;#ffffff&quot;&gt;welcoe&lt;/font&gt;&lt;div&gt;&lt;font color=&quot;#ffffff&quot;&gt;message&lt;/font&gt;&lt;/div&gt;&lt;/div&gt;" style="rounded=0;whiteSpace=wrap;html=1;fillColor=#00CC00;" vertex="1" parent="1">
          <mxGeometry x="190" y="170" width="120" height="60" as="geometry" />
        </mxCell>
        <mxCell id="bJvkTu5emq88tktvNx5C-9" value="" style="edgeStyle=orthogonalEdgeStyle;rounded=0;orthogonalLoop=1;jettySize=auto;html=1;" edge="1" parent="1" source="bJvkTu5emq88tktvNx5C-8" target="bJvkTu5emq88tktvNx5C-6">
          <mxGeometry relative="1" as="geometry" />
        </mxCell>
        <mxCell id="bJvkTu5emq88tktvNx5C-8" value="yes" style="text;html=1;align=center;verticalAlign=middle;resizable=0;points=[];autosize=1;strokeColor=none;fillColor=none;" vertex="1" parent="1">
          <mxGeometry x="260" y="120" width="40" height="30" as="geometry" />
        </mxCell>
        <mxCell id="bJvkTu5emq88tktvNx5C-19" value="" style="edgeStyle=orthogonalEdgeStyle;rounded=0;orthogonalLoop=1;jettySize=auto;html=1;" edge="1" parent="1" source="bJvkTu5emq88tktvNx5C-12" target="bJvkTu5emq88tktvNx5C-16">
          <mxGeometry relative="1" as="geometry" />
        </mxCell>
        <mxCell id="bJvkTu5emq88tktvNx5C-12" value="&lt;font color=&quot;#ffffff&quot;&gt;Calculate&lt;/font&gt;&lt;div&gt;&lt;font color=&quot;#ffffff&quot;&gt;balance&lt;/font&gt;&lt;/div&gt;" style="rounded=0;whiteSpace=wrap;html=1;fillColor=#00CC00;" vertex="1" parent="1">
          <mxGeometry x="414" y="50" width="120" height="60" as="geometry" />
        </mxCell>
        <mxCell id="bJvkTu5emq88tktvNx5C-20" value="" style="edgeStyle=orthogonalEdgeStyle;rounded=0;orthogonalLoop=1;jettySize=auto;html=1;" edge="1" parent="1" source="bJvkTu5emq88tktvNx5C-13" target="bJvkTu5emq88tktvNx5C-17">
          <mxGeometry relative="1" as="geometry" />
        </mxCell>
        <mxCell id="bJvkTu5emq88tktvNx5C-13" value="&lt;font color=&quot;#ffffff&quot;&gt;Culculate&lt;/font&gt;&lt;div&gt;&lt;font color=&quot;#ffffff&quot;&gt;summery&lt;/font&gt;&lt;/div&gt;" style="rounded=0;whiteSpace=wrap;html=1;fillColor=#00CC00;" vertex="1" parent="1">
          <mxGeometry x="414" y="150" width="120" height="60" as="geometry" />
        </mxCell>
        <mxCell id="bJvkTu5emq88tktvNx5C-14" value="&lt;font color=&quot;#ffffff&quot;&gt;Display&lt;/font&gt;&lt;div&gt;&lt;font color=&quot;#ffffff&quot;&gt;movement&lt;/font&gt;&lt;/div&gt;" style="rounded=0;whiteSpace=wrap;html=1;fillColor=#00CC00;" vertex="1" parent="1">
          <mxGeometry x="414" y="250" width="120" height="60" as="geometry" />
        </mxCell>
        <mxCell id="bJvkTu5emq88tktvNx5C-15" value="&lt;font color=&quot;#ffffff&quot;&gt;Start/restart&lt;/font&gt;&lt;div&gt;&lt;font color=&quot;#ffffff&quot;&gt;logout timer&lt;/font&gt;&lt;/div&gt;" style="rounded=0;whiteSpace=wrap;html=1;fillColor=#00CC00;" vertex="1" parent="1">
          <mxGeometry x="414" y="350" width="120" height="60" as="geometry" />
        </mxCell>
        <mxCell id="bJvkTu5emq88tktvNx5C-16" value="&lt;font color=&quot;#ffffff&quot;&gt;Display balance&lt;/font&gt;" style="rounded=0;whiteSpace=wrap;html=1;fillColor=#00CC00;" vertex="1" parent="1">
          <mxGeometry x="620" y="50" width="120" height="60" as="geometry" />
        </mxCell>
        <mxCell id="bJvkTu5emq88tktvNx5C-17" value="&lt;font color=&quot;#ffffff&quot;&gt;Display summery&lt;/font&gt;" style="rounded=0;whiteSpace=wrap;html=1;fillColor=#00CC00;" vertex="1" parent="1">
          <mxGeometry x="620" y="150" width="120" height="60" as="geometry" />
        </mxCell>
        <mxCell id="bJvkTu5emq88tktvNx5C-18" value="&lt;font color=&quot;#ffffff&quot; style=&quot;font-size: 36px;&quot;&gt;Update UI&lt;/font&gt;" style="text;html=1;align=center;verticalAlign=middle;whiteSpace=wrap;rounded=0;" vertex="1" parent="1">
          <mxGeometry x="610" y="320" width="150" height="75" as="geometry" />
        </mxCell>
        <mxCell id="bJvkTu5emq88tktvNx5C-23" value="" style="edgeStyle=orthogonalEdgeStyle;rounded=0;orthogonalLoop=1;jettySize=auto;html=1;" edge="1" parent="1" source="bJvkTu5emq88tktvNx5C-21" target="bJvkTu5emq88tktvNx5C-22">
          <mxGeometry relative="1" as="geometry" />
        </mxCell>
        <mxCell id="bJvkTu5emq88tktvNx5C-21" value="&lt;font color=&quot;#ffffff&quot;&gt;User transfer&amp;nbsp;&lt;/font&gt;&lt;div&gt;&lt;font color=&quot;#ffffff&quot;&gt;money&lt;/font&gt;&lt;/div&gt;" style="ellipse;whiteSpace=wrap;html=1;fillColor=#663300;" vertex="1" parent="1">
          <mxGeometry x="30" y="505" width="120" height="80" as="geometry" />
        </mxCell>
        <mxCell id="bJvkTu5emq88tktvNx5C-25" value="" style="edgeStyle=orthogonalEdgeStyle;rounded=0;orthogonalLoop=1;jettySize=auto;html=1;" edge="1" parent="1" source="bJvkTu5emq88tktvNx5C-22" target="bJvkTu5emq88tktvNx5C-24">
          <mxGeometry relative="1" as="geometry" />
        </mxCell>
        <mxCell id="bJvkTu5emq88tktvNx5C-22" value="&lt;font color=&quot;#ffffff&quot;&gt;Add negative&lt;/font&gt;&lt;div&gt;&lt;font color=&quot;#ffffff&quot;&gt;movement to&lt;/font&gt;&lt;/div&gt;&lt;div&gt;&lt;font color=&quot;#ffffff&quot;&gt;currect user&lt;/font&gt;&lt;/div&gt;" style="rounded=0;whiteSpace=wrap;html=1;fillColor=#00CC00;" vertex="1" parent="1">
          <mxGeometry x="220" y="515" width="120" height="60" as="geometry" />
        </mxCell>
        <mxCell id="bJvkTu5emq88tktvNx5C-26" value="" style="edgeStyle=orthogonalEdgeStyle;rounded=0;orthogonalLoop=1;jettySize=auto;html=1;entryX=0.476;entryY=1.009;entryDx=0;entryDy=0;entryPerimeter=0;" edge="1" parent="1" source="bJvkTu5emq88tktvNx5C-24" target="bJvkTu5emq88tktvNx5C-4">
          <mxGeometry relative="1" as="geometry">
            <mxPoint x="560" y="460" as="targetPoint" />
            <Array as="points">
              <mxPoint x="570" y="545" />
              <mxPoint x="570" y="440" />
              <mxPoint x="576" y="440" />
            </Array>
          </mxGeometry>
        </mxCell>
        <mxCell id="bJvkTu5emq88tktvNx5C-24" value="&lt;font color=&quot;#ffffff&quot;&gt;Add positive&lt;/font&gt;&lt;div&gt;&lt;font color=&quot;#ffffff&quot;&gt;movement to&lt;/font&gt;&lt;/div&gt;&lt;div&gt;&lt;font color=&quot;#ffffff&quot;&gt;recioient&lt;/font&gt;&lt;/div&gt;" style="rounded=0;whiteSpace=wrap;html=1;fillColor=#00CC00;" vertex="1" parent="1">
          <mxGeometry x="414" y="515" width="120" height="60" as="geometry" />
        </mxCell>
        <mxCell id="bJvkTu5emq88tktvNx5C-29" value="" style="edgeStyle=orthogonalEdgeStyle;rounded=0;orthogonalLoop=1;jettySize=auto;html=1;" edge="1" parent="1" source="bJvkTu5emq88tktvNx5C-27" target="bJvkTu5emq88tktvNx5C-28">
          <mxGeometry relative="1" as="geometry" />
        </mxCell>
        <mxCell id="bJvkTu5emq88tktvNx5C-27" value="&lt;font color=&quot;#ffffff&quot;&gt;User reguests&lt;/font&gt;&lt;div&gt;&lt;font color=&quot;#ffffff&quot;&gt;loan&lt;/font&gt;&lt;/div&gt;" style="ellipse;whiteSpace=wrap;html=1;fillColor=#663300;" vertex="1" parent="1">
          <mxGeometry x="30" y="650" width="120" height="80" as="geometry" />
        </mxCell>
        <mxCell id="bJvkTu5emq88tktvNx5C-31" value="" style="edgeStyle=orthogonalEdgeStyle;rounded=0;orthogonalLoop=1;jettySize=auto;html=1;" edge="1" parent="1" source="bJvkTu5emq88tktvNx5C-28" target="bJvkTu5emq88tktvNx5C-30">
          <mxGeometry relative="1" as="geometry" />
        </mxCell>
        <mxCell id="bJvkTu5emq88tktvNx5C-28" value="&lt;font color=&quot;#ffffff&quot;&gt;Any deposit&amp;gt;10%&lt;/font&gt;&lt;div&gt;&lt;font color=&quot;#ffffff&quot;&gt;or reguest?&lt;/font&gt;&lt;/div&gt;" style="rhombus;whiteSpace=wrap;html=1;fillColor=#0066CC;" vertex="1" parent="1">
          <mxGeometry x="220" y="650" width="140" height="80" as="geometry" />
        </mxCell>
        <mxCell id="bJvkTu5emq88tktvNx5C-33" style="edgeStyle=orthogonalEdgeStyle;rounded=0;orthogonalLoop=1;jettySize=auto;html=1;" edge="1" parent="1" source="bJvkTu5emq88tktvNx5C-30">
          <mxGeometry relative="1" as="geometry">
            <mxPoint x="620" y="430" as="targetPoint" />
          </mxGeometry>
        </mxCell>
        <mxCell id="bJvkTu5emq88tktvNx5C-30" value="&lt;font color=&quot;#ffffff&quot;&gt;Add positive&lt;/font&gt;&lt;div&gt;&lt;font color=&quot;#ffffff&quot;&gt;movement to&lt;/font&gt;&lt;/div&gt;&lt;div&gt;&lt;font color=&quot;#ffffff&quot;&gt;currect User&lt;/font&gt;&lt;/div&gt;" style="rounded=0;whiteSpace=wrap;html=1;fillColor=#00CC00;" vertex="1" parent="1">
          <mxGeometry x="414" y="660" width="120" height="60" as="geometry" />
        </mxCell>
        <mxCell id="bJvkTu5emq88tktvNx5C-32" value="Yes" style="text;html=1;align=center;verticalAlign=middle;resizable=0;points=[];autosize=1;strokeColor=none;fillColor=none;" vertex="1" parent="1">
          <mxGeometry x="360" y="658" width="40" height="30" as="geometry" />
        </mxCell>
        <mxCell id="bJvkTu5emq88tktvNx5C-36" value="" style="edgeStyle=orthogonalEdgeStyle;rounded=0;orthogonalLoop=1;jettySize=auto;html=1;" edge="1" parent="1" source="bJvkTu5emq88tktvNx5C-34" target="bJvkTu5emq88tktvNx5C-35">
          <mxGeometry relative="1" as="geometry" />
        </mxCell>
        <mxCell id="bJvkTu5emq88tktvNx5C-34" value="&lt;font color=&quot;#ffffff&quot;&gt;User sorts&lt;/font&gt;&lt;div&gt;&lt;font color=&quot;#ffffff&quot;&gt;movements&lt;/font&gt;&lt;/div&gt;" style="ellipse;whiteSpace=wrap;html=1;fillColor=#663300;" vertex="1" parent="1">
          <mxGeometry x="660" y="640" width="120" height="80" as="geometry" />
        </mxCell>
        <mxCell id="bJvkTu5emq88tktvNx5C-37" style="edgeStyle=orthogonalEdgeStyle;rounded=0;orthogonalLoop=1;jettySize=auto;html=1;" edge="1" parent="1" source="bJvkTu5emq88tktvNx5C-35">
          <mxGeometry relative="1" as="geometry">
            <mxPoint x="990" y="280" as="targetPoint" />
          </mxGeometry>
        </mxCell>
        <mxCell id="bJvkTu5emq88tktvNx5C-40" value="" style="edgeStyle=orthogonalEdgeStyle;rounded=0;orthogonalLoop=1;jettySize=auto;html=1;" edge="1" parent="1" source="bJvkTu5emq88tktvNx5C-35" target="bJvkTu5emq88tktvNx5C-39">
          <mxGeometry relative="1" as="geometry" />
        </mxCell>
        <mxCell id="bJvkTu5emq88tktvNx5C-35" value="&lt;font color=&quot;#ffffff&quot;&gt;Already sorted?&lt;/font&gt;" style="rhombus;whiteSpace=wrap;html=1;fillColor=#0066CC;" vertex="1" parent="1">
          <mxGeometry x="840" y="640" width="80" height="80" as="geometry" />
        </mxCell>
        <mxCell id="bJvkTu5emq88tktvNx5C-38" style="edgeStyle=orthogonalEdgeStyle;rounded=0;orthogonalLoop=1;jettySize=auto;html=1;shape=flexArrow;fillColor=#663300;" edge="1" parent="1">
          <mxGeometry relative="1" as="geometry">
            <mxPoint x="534" y="280" as="targetPoint" />
            <mxPoint x="990" y="280" as="sourcePoint" />
            <Array as="points">
              <mxPoint x="990" y="281" />
              <mxPoint x="744" y="281" />
              <mxPoint x="744" y="280" />
            </Array>
          </mxGeometry>
        </mxCell>
        <mxCell id="bJvkTu5emq88tktvNx5C-39" value="Sort movements" style="rounded=0;whiteSpace=wrap;html=1;fillColor=#00CC00;" vertex="1" parent="1">
          <mxGeometry x="827" y="515" width="120" height="60" as="geometry" />
        </mxCell>
        <mxCell id="bJvkTu5emq88tktvNx5C-41" value="NO" style="text;html=1;align=center;verticalAlign=middle;resizable=0;points=[];autosize=1;strokeColor=none;fillColor=none;" vertex="1" parent="1">
          <mxGeometry x="880" y="598" width="40" height="30" as="geometry" />
        </mxCell>
        <mxCell id="bJvkTu5emq88tktvNx5C-42" value="YES" style="text;html=1;align=center;verticalAlign=middle;resizable=0;points=[];autosize=1;strokeColor=none;fillColor=none;" vertex="1" parent="1">
          <mxGeometry x="935" y="648" width="50" height="30" as="geometry" />
        </mxCell>
        <mxCell id="bJvkTu5emq88tktvNx5C-47" value="" style="edgeStyle=orthogonalEdgeStyle;rounded=0;orthogonalLoop=1;jettySize=auto;html=1;" edge="1" parent="1" source="bJvkTu5emq88tktvNx5C-44" target="bJvkTu5emq88tktvNx5C-45">
          <mxGeometry relative="1" as="geometry" />
        </mxCell>
        <mxCell id="bJvkTu5emq88tktvNx5C-44" value="User closes&lt;div&gt;account&lt;/div&gt;" style="ellipse;whiteSpace=wrap;html=1;fillColor=#663300;" vertex="1" parent="1">
          <mxGeometry x="30" y="810" width="120" height="80" as="geometry" />
        </mxCell>
        <mxCell id="bJvkTu5emq88tktvNx5C-46" style="edgeStyle=orthogonalEdgeStyle;rounded=0;orthogonalLoop=1;jettySize=auto;html=1;exitX=1;exitY=0.5;exitDx=0;exitDy=0;" edge="1" parent="1" source="bJvkTu5emq88tktvNx5C-45">
          <mxGeometry relative="1" as="geometry">
            <mxPoint x="350" y="850" as="targetPoint" />
          </mxGeometry>
        </mxCell>
        <mxCell id="bJvkTu5emq88tktvNx5C-49" value="" style="edgeStyle=orthogonalEdgeStyle;rounded=0;orthogonalLoop=1;jettySize=auto;html=1;" edge="1" parent="1" source="bJvkTu5emq88tktvNx5C-45" target="bJvkTu5emq88tktvNx5C-48">
          <mxGeometry relative="1" as="geometry" />
        </mxCell>
        <mxCell id="bJvkTu5emq88tktvNx5C-45" value="&lt;font color=&quot;#ffffff&quot;&gt;Correct&lt;/font&gt;&lt;div&gt;&lt;font color=&quot;#ffffff&quot;&gt;credentials?&lt;/font&gt;&lt;/div&gt;" style="rhombus;whiteSpace=wrap;html=1;fillColor=#0066CC;" vertex="1" parent="1">
          <mxGeometry x="230" y="810" width="120" height="80" as="geometry" />
        </mxCell>
        <mxCell id="bJvkTu5emq88tktvNx5C-52" value="" style="edgeStyle=orthogonalEdgeStyle;rounded=0;orthogonalLoop=1;jettySize=auto;html=1;" edge="1" parent="1" source="bJvkTu5emq88tktvNx5C-48" target="bJvkTu5emq88tktvNx5C-51">
          <mxGeometry relative="1" as="geometry" />
        </mxCell>
        <mxCell id="bJvkTu5emq88tktvNx5C-48" value="Delete user from&lt;div&gt;data&lt;/div&gt;" style="whiteSpace=wrap;html=1;fillColor=#00CC00;" vertex="1" parent="1">
          <mxGeometry x="430" y="820" width="120" height="60" as="geometry" />
        </mxCell>
        <mxCell id="bJvkTu5emq88tktvNx5C-50" value="YES" style="text;html=1;align=center;verticalAlign=middle;resizable=0;points=[];autosize=1;strokeColor=none;fillColor=none;" vertex="1" parent="1">
          <mxGeometry x="355" y="818" width="50" height="30" as="geometry" />
        </mxCell>
        <mxCell id="bJvkTu5emq88tktvNx5C-54" value="" style="edgeStyle=orthogonalEdgeStyle;rounded=0;orthogonalLoop=1;jettySize=auto;html=1;" edge="1" parent="1" source="bJvkTu5emq88tktvNx5C-51" target="bJvkTu5emq88tktvNx5C-53">
          <mxGeometry relative="1" as="geometry" />
        </mxCell>
        <mxCell id="bJvkTu5emq88tktvNx5C-51" value="Log user out&lt;div&gt;(hide UI)&lt;/div&gt;" style="whiteSpace=wrap;html=1;fillColor=#00CC00;" vertex="1" parent="1">
          <mxGeometry x="630" y="820" width="120" height="60" as="geometry" />
        </mxCell>
        <mxCell id="bJvkTu5emq88tktvNx5C-53" value="Logout timer&lt;div&gt;expires&lt;/div&gt;" style="ellipse;whiteSpace=wrap;html=1;fillColor=#663300;" vertex="1" parent="1">
          <mxGeometry x="850" y="810" width="120" height="80" as="geometry" />
        </mxCell>
      </root>
    </mxGraphModel>
  </diagram>
</mxfile>
